# xmcd
#
# Track frame offsets:
#	182
#	13722
#	25695
#	40840
#	55277
#	68147
#	77997
#	91730
#	106805
#	121710
#	133177
#
# Disc length: 1954 seconds
# Revision: 0
# Processed by: cddbd v1.5.2PL0 Copyright (c) Steve Scherf et al.
# Submitted via: dBpowerAMP V12.0
#
DISCID=8407a00b
DTITLE=Johnnie Taylor - Wanted One Soul Singer
DYEAR=1967
DGENRE=Soul
TTITLE0=I Got to Love Somebody's Baby
TTITLE1=Just The One I've Been Lookin' For
TTITLE2=Watermelon Man
TTITLE3=Where Can a Man go From Here
TTITLE4=Toe-Hold
TTITLE5=Outside Love
TTITLE6=Ain't That Loving You (For More Reasons Than One)
TTITLE7=Blues in The Night
TTITLE8=I Had a Dream
TTITLE9=Sixteen Tons
TTITLE10=Little Bluebird
EXTD=
EXTT0=
EXTT1=
EXTT2=
EXTT3=
EXTT4=
EXTT5=
EXTT6=
EXTT7=
EXTT8=
EXTT9=
EXTT10=
PLAYORDER=
